Coordinates
version=1
nRows=9
nColumns=63
inDegrees=yes

Units are S.I. units (second, meters, Newtons, ...)
If the header above contains a line with 'inDegrees', this indicates whether rotational values are in degrees (yes) or radians (no).

endheader
time	pelvis_tilt	pelvis_list	pelvis_rotation	pelvis_tx	pelvis_ty	pelvis_tz	hip_flexion_r	hip_adduction_r	hip_rotation_r	knee_angle_r	knee_angle_r_beta	ankle_angle_r	subtalar_angle_r	mtp_angle_r	hip_flexion_l	hip_adduction_l	hip_rotation_l	knee_angle_l	knee_angle_l_beta	ankle_angle_l	subtalar_angle_l	mtp_angle_l	L5_S1_Flex_Ext	L5_S1_Lat_Bending	L5_S1_axial_rotation	L4_L5_Flex_Ext	L4_L5_Lat_Bending	L4_L5_axial_rotation	L3_L4_Flex_Ext	L3_L4_Lat_Bending	L3_L4_axial_rotation	L2_L3_Flex_Ext	L2_L3_Lat_Bending	L2_L3_axial_rotation	L1_L2_Flex_Ext	L1_L2_Lat_Bending	L1_L2_axial_rotation	L1_T12_Flex_Ext	L1_T12_Lat_Bending	L1_T12_axial_rotation	Abs_r3	Abs_r2	Abs_r1	Abs_t1	Abs_t2	neck_flexion	neck_bending	neck_rotation	arm_flex_r	arm_add_r	arm_rot_r	elbow_flex_r	pro_sup_r	wrist_flex_r	wrist_dev_r	arm_flex_l	arm_add_l	arm_rot_l	elbow_flex_l	pro_sup_l	wrist_flex_l	wrist_dev_l
4.583333	1.317238	7.100343	91.042300	0.309889	0.813762	0.809741	2.438749	2.693662	-7.771432	24.727961	0.431584	28.698341	13.170195	0.000000	10.871558	-7.289897	22.254836	25.589019	0.446613	18.458039	4.614957	0.000000	-0.030334	-0.435428	-0.181909	-0.056334	-0.579119	-0.193278	-0.049836	-1.058700	-0.193278	-0.034669	-1.058700	-0.159170	-0.028168	-0.887925	-0.147801	-0.017333	-0.674478	-0.136431	-0.216675	-4.925651	-1.011721	0.000000	0.000000	5.041753	-0.032868	-10.241441	28.415983	-8.605404	43.215359	135.066382	76.030506	1.366313	19.949849	191.201896	196.433786	215.121846	149.477267	81.240050	-27.907859	3.019943
4.600000	1.637216	6.735012	90.540928	0.307653	0.815804	0.807048	2.146442	2.769230	-8.161239	23.862696	0.416483	27.706477	13.736613	0.000000	10.527920	-7.304772	23.892832	24.948351	0.435431	19.972971	4.110652	0.000000	-0.045441	-0.346264	-0.235006	-0.084389	-0.460531	-0.249693	-0.074656	-0.841905	-0.249693	-0.051935	-0.841905	-0.205630	-0.042197	-0.706101	-0.190942	-0.025965	-0.536362	-0.176254	-0.324583	-3.917003	-1.307031	0.000000	0.000000	5.179229	-0.234408	-12.489521	27.477811	-9.243295	42.005505	136.062017	78.661154	-0.538915	20.361118	191.430977	195.087282	212.557745	149.570619	79.949913	-22.358737	6.361886
4.616667	1.884728	6.355737	90.061036	0.305396	0.817801	0.803915	1.879583	2.766581	-8.501219	23.132982	0.403747	26.706856	14.076122	0.000000	10.114018	-7.283342	25.391462	24.250888	0.423258	21.276335	3.658753	0.000000	-0.056307	-0.270430	-0.282901	-0.104568	-0.359671	-0.300583	-0.092507	-0.657523	-0.300583	-0.064353	-0.657523	-0.247539	-0.052287	-0.551460	-0.229857	-0.032174	-0.418896	-0.212176	-0.402195	-3.059155	-1.573413	0.000000	0.000000	5.361488	-0.352758	-14.355863	26.513673	-9.702051	40.931978	137.030735	80.810378	-2.570015	20.824109	191.597754	193.801520	210.030371	149.547203	78.970766	-16.746936	9.188877
4.633333	2.154379	5.979502	89.566957	0.303073	0.819711	0.800347	1.614243	2.779519	-8.775105	22.498522	0.392673	25.743997	14.290571	0.000000	9.640249	-7.327620	26.713910	23.543455	0.410911	22.405828	3.285075	0.000000	-0.060062	-0.193221	-0.323660	-0.111540	-0.256984	-0.343889	-0.098675	-0.469797	-0.343889	-0.068644	-0.469797	-0.283202	-0.055773	-0.394016	-0.262974	-0.034319	-0.299299	-0.242745	-0.429014	-2.185753	-1.800099	0.000000	0.000000	5.578694	-0.497273	-15.707914	25.594266	-10.041105	40.094127	137.946316	82.131790	-4.503252	21.393549	191.847432	192.564046	207.939003	149.283064	78.337094	-12.180603	11.200705
4.650000	2.357784	5.639579	89.049346	0.300863	0.821490	0.796336	1.340645	2.730989	-8.919107	22.007855	0.384110	24.919697	14.374832	0.000000	9.068185	-7.354865	27.845902	22.831345	0.398482	23.225643	2.953249	0.000000	-0.060947	-0.129189	-0.362277	-0.113184	-0.171821	-0.384919	-0.100130	-0.314109	-0.384919	-0.069656	-0.314109	-0.316992	-0.056595	-0.263441	-0.294350	-0.034825	-0.200113	-0.271708	-0.435338	-1.461407	-2.014874	0.000000	0.000000	5.976481	-0.631939	-16.748079	24.771394	-10.228377	39.563567	138.779589	82.805822	-6.314448	21.974804	192.173784	191.533984	206.184094	148.813103	78.049997	-8.284577	12.508401
4.666667	2.547108	5.330873	88.501622	0.298744	0.823061	0.791911	1.058353	2.663233	-8.964463	21.645866	0.377792	24.243184	14.445763	0.000000	8.430307	-7.415409	28.798568	22.171622	0.386968	23.681919	2.686644	0.000000	-0.057829	-0.070745	-0.406536	-0.107394	-0.094091	-0.431945	-0.095007	-0.172010	-0.431945	-0.066092	-0.172010	-0.355719	-0.053700	-0.144264	-0.330311	-0.033043	-0.109584	-0.304902	-0.413064	-0.800285	-2.261031	0.000000	0.000000	6.521803	-0.948479	-17.710779	24.094797	-10.291318	39.320648	139.507531	82.971518	-7.700806	22.667091	192.652803	190.775150	204.962218	148.149794	78.122359	-5.465514	13.077104
4.683333	2.678918	5.079496	87.931890	0.296777	0.824370	0.787119	0.753742	2.532943	-8.911235	21.427246	0.373976	23.766462	14.502856	0.000000	7.719172	-7.446835	29.647729	21.594403	0.376893	23.670395	2.472404	0.000000	-0.054700	-0.024461	-0.477298	-0.101583	-0.032533	-0.507129	-0.089866	-0.059475	-0.507129	-0.062516	-0.059475	-0.417636	-0.050794	-0.049881	-0.387804	-0.031255	-0.037890	-0.357973	-0.390714	-0.276709	-2.654587	0.000000	0.000000	7.227461	-1.322175	-18.622567	23.628927	-10.189202	39.418099	140.112702	82.967453	-8.683987	23.391327	193.308672	190.456923	204.389742	147.402748	78.556686	-3.898997	12.760181
4.700000	2.746997	4.872550	87.317073	0.294984	0.825385	0.781985	0.437520	2.331045	-8.756981	21.341142	0.372473	23.486803	14.582965	0.000000	6.954596	-7.437441	30.367828	21.113900	0.368507	23.149435	2.365757	0.000000	-0.050570	0.011368	-0.593582	-0.093914	0.015120	-0.630681	-0.083082	0.027641	-0.630681	-0.057797	0.027641	-0.519385	-0.046959	0.023182	-0.482286	-0.028896	0.017609	-0.445187	-0.361217	0.128599	-3.301327	0.000000	0.000000	8.058378	-1.659882	-19.369026	23.445163	-9.908977	39.937048	140.564562	83.416363	-9.385862	23.908695	194.020968	190.597008	204.261927	146.687227	79.340760	-2.948160	11.500302
4.716667	2.774630	4.702022	86.685135	0.293306	0.826077	0.776548	0.100289	2.087334	-8.537213	21.341172	0.372474	23.361702	14.656025	0.000000	6.160622	-7.393682	31.058718	20.736390	0.361918	22.202995	2.363126	0.000000	-0.043726	0.040622	-0.760586	-0.081203	0.054028	-0.808123	-0.071837	0.098769	-0.808123	-0.049974	0.098769	-0.665513	-0.040604	0.082837	-0.617976	-0.024985	0.062924	-0.570440	-0.312329	0.459527	-4.230154	0.000000	0.000000	8.939322	-1.913628	-19.954652	23.523753	-9.480922	40.834767	140.894682	84.163658	-9.850357	24.325861	194.789436	191.216006	204.604936	146.119337	80.486533	-2.304023	9.728083
